<svg xmlns="http://www.w3.org/2000/svg" xmlns:svg="http://www.w3.org/2000/svg" id="svg5039" width="877.162" height="162.691" version="1.1"><metadata id="metadata5044"/><g id="layer1" transform="translate(7.0120363,-446.11911)"><path style="fill:none;fill-opacity:1;stroke:#000;stroke-opacity:1;stroke-width:2;stroke-miterlimit:4;stroke-dasharray:none" id="path4941" d="m 440.91845,568.04974 40.10695,-82.8877 41.17647,62.03208 z"/><path style="fill:red;stroke:#000;stroke-width:1px;stroke-linecap:butt;stroke-linejoin:miter;stroke-opacity:1" id="path5580" d="m 266.04613,478.59029 0,13.87198"/><path style="fill:red;stroke:#000;stroke-width:1px;stroke-linecap:butt;stroke-linejoin:miter;stroke-opacity:1" id="path5582" d="m 260.53535,485.52628 11.02157,0"/><path style="fill:red;stroke:#000;stroke-width:1px;stroke-linecap:butt;stroke-linejoin:miter;stroke-opacity:1" id="path5580-6" d="m 307.47204,540.63413 0,13.87198"/><path style="fill:red;stroke:#000;stroke-width:1px;stroke-linecap:butt;stroke-linejoin:miter;stroke-opacity:1" id="path5582-6" d="m 301.96126,547.57012 11.02157,0"/><path style="fill:red;stroke:#000;stroke-width:1px;stroke-linecap:butt;stroke-linejoin:miter;stroke-opacity:1" id="path5580-2" d="m 225.95041,561.34708 0,13.87198"/><path style="fill:red;stroke:#000;stroke-width:1px;stroke-linecap:butt;stroke-linejoin:miter;stroke-opacity:1" id="path5582-8" d="m 220.43963,568.28307 11.02157,0"/><text style="font-size:10px;font-style:normal;font-weight:400;line-height:125%;letter-spacing:0;word-spacing:0;fill:red;fill-opacity:1;stroke:none;font-family:Sans" id="text4951" x="269.982" y="479.031" xml:space="preserve"><tspan id="tspan4953" x="269.982" y="479.031">(0, 0.5)</tspan></text><text style="font-size:10px;font-style:normal;font-weight:400;line-height:125%;letter-spacing:0;word-spacing:0;fill:red;fill-opacity:1;stroke:none;font-family:Sans" id="text4951-9" x="193.828" y="585.453" xml:space="preserve"><tspan id="tspan4953-2" x="193.828" y="585.453">(-0.5, -0.5)</tspan></text><text style="font-size:10px;font-style:normal;font-weight:400;line-height:125%;letter-spacing:0;word-spacing:0;fill:red;fill-opacity:1;stroke:none;font-family:Sans" id="text4951-9-8" x="285.288" y="567.684" xml:space="preserve"><tspan id="tspan4953-2-1" x="285.288" y="567.684">(0.5, -0.25)</tspan></text><rect style="fill:red;fill-opacity:0;stroke:#8e0000;stroke-width:3;stroke-linecap:butt;stroke-linejoin:miter;stroke-miterlimit:4;stroke-opacity:1;stroke-dasharray:none" id="rect2985" width="158.928" height="158.928" x="186.829" y="447.878"/><text style="font-size:10px;font-style:normal;font-weight:400;line-height:125%;letter-spacing:0;word-spacing:0;fill:#000;fill-opacity:1;stroke:none;font-family:Sans" id="text4951-6" x="-5.915" y="517.597" xml:space="preserve"><tspan id="tspan5715" x="-5.915" y="530.097">[ 0.0, 0.5 ]</tspan></text><path style="fill:none;stroke:#000;stroke-width:1px;stroke-linecap:butt;stroke-linejoin:miter;stroke-opacity:.39607843" id="path5737" d="m 399.43899,591.39345 157.85909,0"/><path style="fill:none;stroke:#000;stroke-width:1px;stroke-linecap:butt;stroke-linejoin:miter;stroke-opacity:.39607843" id="path5737-6" d="m 399.43899,573.4533 157.85909,0"/><path style="fill:none;stroke:#000;stroke-width:1px;stroke-linecap:butt;stroke-linejoin:miter;stroke-opacity:.39607843" id="path5737-4" d="m 399.43899,555.51309 157.85909,0"/><path style="fill:none;stroke:#000;stroke-width:1px;stroke-linecap:butt;stroke-linejoin:miter;stroke-opacity:.39607843" id="path5737-6-0" d="m 399.43899,537.57298 157.85909,0"/><path style="fill:none;stroke:#000;stroke-width:1px;stroke-linecap:butt;stroke-linejoin:miter;stroke-opacity:.39607843" id="path5737-8" d="m 399.43899,519.63276 157.85909,0"/><path style="fill:none;stroke:#000;stroke-width:1px;stroke-linecap:butt;stroke-linejoin:miter;stroke-opacity:.39607843" id="path5737-6-4" d="m 399.43899,501.69255 157.85909,0"/><path style="fill:none;stroke:#000;stroke-width:1px;stroke-linecap:butt;stroke-linejoin:miter;stroke-opacity:.39607843" id="path5737-42" d="m 399.43899,483.75246 157.85909,0"/><path style="fill:none;stroke:#000;stroke-width:1px;stroke-linecap:butt;stroke-linejoin:miter;stroke-opacity:.39607843" id="path5737-6-00" d="m 399.43899,465.81225 157.85909,0"/><path style="fill:none;stroke:#000;stroke-width:1px;stroke-linecap:butt;stroke-linejoin:miter;stroke-opacity:.39607843" id="path5737-88" d="m 416.58663,449.6733 0,157.8591"/><path style="fill:none;stroke:#000;stroke-width:1px;stroke-linecap:butt;stroke-linejoin:miter;stroke-opacity:.39607843" id="path5737-6-1" d="m 434.52678,449.6733 0,157.8591"/><path style="fill:none;stroke:#000;stroke-width:1px;stroke-linecap:butt;stroke-linejoin:miter;stroke-opacity:.39607843" id="path5737-4-1" d="m 452.46699,449.6733 0,157.8591"/><path style="fill:none;stroke:#000;stroke-width:1px;stroke-linecap:butt;stroke-linejoin:miter;stroke-opacity:.39607843" id="path5737-6-0-0" d="m 470.4071,449.6733 0,157.8591"/><path style="fill:none;stroke:#000;stroke-width:1px;stroke-linecap:butt;stroke-linejoin:miter;stroke-opacity:.39607843" id="path5737-8-6" d="m 488.34732,449.6733 0,157.8591"/><path style="fill:none;stroke:#000;stroke-width:1px;stroke-linecap:butt;stroke-linejoin:miter;stroke-opacity:.39607843" id="path5737-6-4-8" d="m 506.28753,449.6733 0,157.8591"/><path style="fill:none;stroke:#000;stroke-width:1px;stroke-linecap:butt;stroke-linejoin:miter;stroke-opacity:.39607843" id="path5737-42-9" d="m 524.22762,449.6733 0,157.8591"/><path style="fill:none;stroke:#000;stroke-width:1px;stroke-linecap:butt;stroke-linejoin:miter;stroke-opacity:.39607843" id="path5737-6-00-9" d="m 542.16783,449.6733 0,157.8591"/><rect style="fill:red;fill-opacity:0;stroke:#8e0000;stroke-width:3;stroke-linecap:butt;stroke-linejoin:miter;stroke-miterlimit:4;stroke-opacity:1;stroke-dasharray:none" id="rect2985-6" width="158.928" height="158.928" x="399.661" y="448.382"/><rect style="fill:#000;fill-opacity:1;stroke:none" id="rect5885" width="22.807" height="16.667" x="57.877" y="520.039"/><path style="fill:#000;fill-opacity:1;stroke:none" id="rect5887" d="m 71.911974,544.60036 0,-32.45614 18.42105,16.22807"/><rect style="fill:#000;fill-opacity:1;stroke:none" id="rect5885-6" width="22.807" height="16.667" x="356.499" y="516.756"/><path style="fill:#000;fill-opacity:1;stroke:none" id="rect5887-2" d="m 370.5343,541.31753 0,-32.45614 18.42105,16.22807"/><path style="fill:none;stroke:#000;stroke-width:1px;stroke-linecap:butt;stroke-linejoin:miter;stroke-opacity:.39607843" id="path5737-3" d="m 709.50031,590.63009 157.85909,0"/><path style="fill:none;stroke:#000;stroke-width:1px;stroke-linecap:butt;stroke-linejoin:miter;stroke-opacity:.39607843" id="path5737-6-7" d="m 709.50031,572.68994 157.85909,0"/><path style="fill:none;stroke:#000;stroke-width:1px;stroke-linecap:butt;stroke-linejoin:miter;stroke-opacity:.39607843" id="path5737-4-2" d="m 709.50031,554.74973 157.85909,0"/><path style="fill:none;stroke:#000;stroke-width:1px;stroke-linecap:butt;stroke-linejoin:miter;stroke-opacity:.39607843" id="path5737-6-0-4" d="m 709.50031,536.80963 157.85909,0"/><path style="fill:none;stroke:#000;stroke-width:1px;stroke-linecap:butt;stroke-linejoin:miter;stroke-opacity:.39607843" id="path5737-8-9" d="m 709.50031,518.86941 157.85909,0"/><path style="fill:none;stroke:#000;stroke-width:1px;stroke-linecap:butt;stroke-linejoin:miter;stroke-opacity:.39607843" id="path5737-6-4-82" d="m 709.50031,500.9292 157.85909,0"/><path style="fill:none;stroke:#000;stroke-width:1px;stroke-linecap:butt;stroke-linejoin:miter;stroke-opacity:.39607843" id="path5737-42-0" d="m 709.50031,482.98911 157.85909,0"/><path style="fill:none;stroke:#000;stroke-width:1px;stroke-linecap:butt;stroke-linejoin:miter;stroke-opacity:.39607843" id="path5737-6-00-91" d="m 709.50031,465.0489 157.85909,0"/><path style="fill:none;stroke:#000;stroke-width:1px;stroke-linecap:butt;stroke-linejoin:miter;stroke-opacity:.39607843" id="path5737-88-3" d="m 726.64795,448.90995 0,157.85909"/><path style="fill:none;stroke:#000;stroke-width:1px;stroke-linecap:butt;stroke-linejoin:miter;stroke-opacity:.39607843" id="path5737-6-1-0" d="m 744.5881,448.90995 0,157.85909"/><path style="fill:none;stroke:#000;stroke-width:1px;stroke-linecap:butt;stroke-linejoin:miter;stroke-opacity:.39607843" id="path5737-4-1-8" d="m 762.52831,448.90995 0,157.85909"/><path style="fill:none;stroke:#000;stroke-width:1px;stroke-linecap:butt;stroke-linejoin:miter;stroke-opacity:.39607843" id="path5737-6-0-0-4" d="m 780.46842,448.90995 0,157.85909"/><path style="fill:none;stroke:#000;stroke-width:1px;stroke-linecap:butt;stroke-linejoin:miter;stroke-opacity:.39607843" id="path5737-8-6-5" d="m 798.40864,448.90995 0,157.85909"/><path style="fill:none;stroke:#000;stroke-width:1px;stroke-linecap:butt;stroke-linejoin:miter;stroke-opacity:.39607843" id="path5737-6-4-8-3" d="m 816.34885,448.90995 0,157.85909"/><path style="fill:none;stroke:#000;stroke-width:1px;stroke-linecap:butt;stroke-linejoin:miter;stroke-opacity:.39607843" id="path5737-42-9-1" d="m 834.28894,448.90995 0,157.85909"/><path style="fill:none;stroke:#000;stroke-width:1px;stroke-linecap:butt;stroke-linejoin:miter;stroke-opacity:.39607843" id="path5737-6-00-9-6" d="m 852.22915,448.90995 0,157.85909"/><rect style="fill:red;fill-opacity:0;stroke:#8e0000;stroke-width:3;stroke-linecap:butt;stroke-linejoin:miter;stroke-miterlimit:4;stroke-opacity:1;stroke-dasharray:none" id="rect2985-6-6" width="158.928" height="158.928" x="709.722" y="447.619"/><rect style="fill:#000;fill-opacity:1;stroke:none" id="rect5885-6-5" width="22.807" height="16.667" x="666.56" y="519.81"/><path style="fill:#000;fill-opacity:1;stroke:none" id="rect5887-2-4" d="m 680.59562,544.37097 0,-32.45614 18.42105,16.22807"/><path style="fill:red;fill-opacity:1;stroke:none" id="path6047" d="m 781.23302,527.76623 0,-8.14978 8.14978,0 8.14978,0 0,8.14978 0,8.14978 -8.14978,0 -8.14978,0 0,-8.14978 z"/><path style="fill:#ff0909;fill-opacity:1;stroke:none" id="path6049" d="m 799.2947,527.76623 0,-8.14978 8.14978,0 8.14978,0 0,8.14978 0,8.14978 -8.14978,0 -8.14978,0 0,-8.14978 z"/><path style="fill:red;fill-opacity:1;stroke:none" id="path6051" d="m 781.23302,545.82791 0,-8.14978 8.14978,0 8.14978,0 0,8.14978 0,8.14978 -8.14978,0 -8.14978,0 0,-8.14978 z"/><path style="fill:#ff1313;fill-opacity:1;stroke:none" id="path6053" d="m 781.23302,509.92482 0,-8.37004 8.14978,0 8.14978,0 0,8.37004 0,8.37005 -8.14978,0 -8.14978,0 0,-8.37005 z"/><path style="fill:#ff0d0d;fill-opacity:1;stroke:none" id="path6055" d="m 763.17135,545.82791 0,-8.14978 8.37004,0 8.37005,0 0,8.14978 0,8.14978 -8.37005,0 -8.37004,0 0,-8.14978 z"/><path style="fill:#ff8989;fill-opacity:1;stroke:none" id="path6057" d="m 745.10968,563.66932 0,-8.37005 8.37004,0 8.37004,0 0,8.37005 0,8.37004 -8.37004,0 -8.37004,0 0,-8.37004 z"/><path style="fill:#ff6969;fill-opacity:1;stroke:none" id="path6059" d="m 763.17135,563.66932 0,-8.37005 8.37004,0 8.37005,0 0,8.37005 0,8.37004 -8.37005,0 -8.37004,0 0,-8.37004 z"/><path style="fill:#ff5d5d;fill-opacity:1;stroke:none" id="path6061" d="m 816.91584,545.82791 0,-8.14978 8.37005,0 8.37004,0 0,8.14978 0,8.14978 -8.37004,0 -8.37005,0 0,-8.14978 z"/><path style="fill:#ff8989;fill-opacity:1;stroke:none" id="path6063" d="m 816.91584,527.76623 0,-8.14978 8.37005,0 8.37004,0 0,8.14978 0,8.14978 -8.37004,0 -8.37005,0 0,-8.14978 z"/><path style="fill:#ff7171;fill-opacity:1;stroke:none" id="path6065" d="m 799.2947,509.92482 0,-8.37004 8.14978,0 8.14978,0 0,8.37004 0,8.37005 -8.14978,0 -8.14978,0 0,-8.37005 z"/><path style="fill:#ff8181;fill-opacity:1;stroke:none" id="path6067" d="m 781.23302,491.86315 0,-8.37004 8.14978,0 8.14978,0 0,8.37004 0,8.37004 -8.14978,0 -8.14978,0 0,-8.37004 z"/><path style="fill:#ff8989;fill-opacity:1;stroke:none" id="path6069" d="m 763.17135,527.76623 0,-8.14978 8.37004,0 8.37005,0 0,8.14978 0,8.14978 -8.37005,0 -8.37004,0 0,-8.14978 z"/><path style="fill:#ffcdcd;fill-opacity:1;stroke:none" id="path6071" d="m 745.10968,545.82791 0,-8.14978 8.37004,0 8.37004,0 0,8.14978 0,8.14978 -8.37004,0 -8.37004,0 0,-8.14978 z"/><path style="fill:#ffcfcf;fill-opacity:1;stroke:none" id="path6073" d="m 763.17135,509.92482 0,-8.37004 8.37004,0 8.37005,0 0,8.37004 0,8.37005 -8.37005,0 -8.37004,0 0,-8.37005 z"/><path style="fill:#ff2929;fill-opacity:1;stroke:none" id="path6075" d="m 799.2947,545.82791 0,-8.14978 8.14978,0 8.14978,0 0,8.14978 0,8.14978 -8.14978,0 -8.14978,0 0,-8.14978 z"/><path style="fill:#ffc1c1;fill-opacity:1;stroke:none" id="path6077" d="m 781.23302,563.66932 0,-8.37005 8.14978,0 8.14978,0 0,8.37005 0,8.37004 -8.14978,0 -8.14978,0 0,-8.37004 z"/><path style="fill:#ffd1d1;fill-opacity:1;stroke:none" id="path6079" d="m 799.2947,491.86315 0,-8.37004 8.14978,0 8.14978,0 0,8.37004 0,8.37004 -8.14978,0 -8.14978,0 0,-8.37004 z"/><rect style="fill:#000;fill-opacity:1;stroke:none" id="rect5885-5" width="22.807" height="16.667" x="145.663" y="520.039"/><path style="fill:#000;fill-opacity:1;stroke:none" id="rect5887-29" d="m 159.69823,544.60036 0,-32.45614 18.42105,16.22807"/><text style="font-size:12px;font-style:normal;font-weight:400;text-align:center;line-height:125%;letter-spacing:0;word-spacing:0;text-anchor:middle;fill:#000;fill-opacity:1;stroke:none;font-family:Sans" id="text6111" x="117.484" y="523.355" xml:space="preserve"><tspan id="tspan6113" x="117.484" y="523.355">Vertex</tspan><tspan id="tspan6115" x="117.484" y="538.355">shader</tspan></text><rect style="fill:#000;fill-opacity:1;stroke:none" id="rect5885-3" width="22.807" height="16.667" x="566.274" y="520.039"/><path style="fill:#000;fill-opacity:1;stroke:none" id="rect5887-21" d="m 580.30892,544.60036 0,-32.45614 18.42105,16.22807"/><text style="font-size:12px;font-style:normal;font-weight:400;text-align:center;line-height:125%;letter-spacing:0;word-spacing:0;text-anchor:middle;fill:#000;fill-opacity:1;stroke:none;font-family:Sans" id="text6111-2" x="631.988" y="535.355" xml:space="preserve"><tspan id="tspan6113-1" x="631.988" y="535.355">Fragment</tspan><tspan id="tspan6115-6" x="631.988" y="550.355">shader</tspan></text><path style="fill:none;fill-opacity:1;stroke:#000;stroke-opacity:.22352941;stroke-width:1;stroke-miterlimit:4;stroke-dasharray:1,2;stroke-dashoffset:0" id="path4941-1" d="m 226.41463,568.04974 40.10695,-82.8877 41.17647,62.03208 z"/><text style="font-size:10px;font-style:normal;font-weight:400;line-height:125%;letter-spacing:0;word-spacing:0;fill:#000;fill-opacity:1;stroke:none;font-family:Sans" id="text4951-6-6" x="-6.345" y="561.108" xml:space="preserve"><tspan id="tspan5717-8" x="-6.345" y="573.608">[ 0.5, -0.25]</tspan></text><rect style="fill:#000;fill-opacity:1;stroke:none" id="rect5885-8" width="22.807" height="16.667" x="57.877" y="563.55"/><path style="fill:#000;fill-opacity:1;stroke:none" id="rect5887-9" d="m 71.911974,588.11181 0,-32.45614 18.42105,16.22807"/><rect style="fill:#000;fill-opacity:1;stroke:none" id="rect5885-5-6" width="22.807" height="16.667" x="145.663" y="563.55"/><path style="fill:#000;fill-opacity:1;stroke:none" id="rect5887-29-9" d="m 159.69823,588.11181 0,-32.45614 18.42105,16.22807"/><text style="font-size:12px;font-style:normal;font-weight:400;text-align:center;line-height:125%;letter-spacing:0;word-spacing:0;text-anchor:middle;fill:#000;fill-opacity:1;stroke:none;font-family:Sans" id="text6111-5" x="117.484" y="566.866" xml:space="preserve"><tspan id="tspan6113-9" x="117.484" y="566.866">Vertex</tspan><tspan id="tspan6115-9" x="117.484" y="581.866">shader</tspan></text><text style="font-size:10px;font-style:normal;font-weight:400;line-height:125%;letter-spacing:0;word-spacing:0;fill:#000;fill-opacity:1;stroke:none;font-family:Sans" id="text4951-6-1" x="-6.774" y="484.009" xml:space="preserve"><tspan id="tspan5717-84" x="-6.774" y="484.009">[-0.5, -0.5 ]</tspan></text><rect style="fill:#000;fill-opacity:1;stroke:none" id="rect5885-7" width="22.807" height="16.667" x="57.877" y="473.474"/><path style="fill:#000;fill-opacity:1;stroke:none" id="rect5887-6" d="m 71.911974,498.03547 0,-32.45614 18.42105,16.22807"/><rect style="fill:#000;fill-opacity:1;stroke:none" id="rect5885-5-4" width="22.807" height="16.667" x="145.663" y="473.474"/><path style="fill:#000;fill-opacity:1;stroke:none" id="rect5887-29-6" d="m 159.69823,498.03547 0,-32.45614 18.42105,16.22807"/><text style="font-size:12px;font-style:normal;font-weight:400;text-align:center;line-height:125%;letter-spacing:0;word-spacing:0;text-anchor:middle;fill:#000;fill-opacity:1;stroke:none;font-family:Sans" id="text6111-0" x="117.484" y="476.79" xml:space="preserve"><tspan id="tspan6113-7" x="117.484" y="476.79">Vertex</tspan><tspan id="tspan6115-7" x="117.484" y="491.79">shader</tspan></text><rect style="fill:#000;fill-opacity:1;stroke:none" id="rect5885-6-5-1" width="22.807" height="16.667" x="666.56" y="489.275"/><path style="fill:#000;fill-opacity:1;stroke:none" id="rect5887-2-4-6" d="m 680.59562,513.83662 0,-32.45614 18.42105,16.22807"/><rect style="fill:#000;fill-opacity:1;stroke:none" id="rect5885-3-6" width="22.807" height="16.667" x="566.274" y="489.505"/><path style="fill:#000;fill-opacity:1;stroke:none" id="rect5887-21-6" d="m 580.30892,514.06601 0,-32.45614 18.42105,16.22807"/><text style="font-size:12px;font-style:normal;font-weight:400;text-align:center;line-height:125%;letter-spacing:0;word-spacing:0;text-anchor:middle;fill:#000;fill-opacity:1;stroke:none;font-family:Sans" id="text6111-2-8" x="631.988" y="504.82" xml:space="preserve"><tspan id="tspan6113-1-3" x="631.988" y="504.82">Fragment</tspan><tspan id="tspan6115-6-9" x="631.988" y="519.82">shader</tspan></text><rect style="fill:#000;fill-opacity:1;stroke:none" id="rect5885-6-5-10" width="22.807" height="16.667" x="666.56" y="457.214"/><path style="fill:#000;fill-opacity:1;stroke:none" id="rect5887-2-4-5" d="m 680.59562,481.77555 0,-32.45614 18.42105,16.22807"/><rect style="fill:#000;fill-opacity:1;stroke:none" id="rect5885-3-7" width="22.807" height="16.667" x="566.274" y="457.444"/><path style="fill:#000;fill-opacity:1;stroke:none" id="rect5887-21-0" d="m 580.30892,482.00494 0,-32.45614 18.42105,16.22807"/><text style="font-size:12px;font-style:normal;font-weight:400;text-align:center;line-height:125%;letter-spacing:0;word-spacing:0;text-anchor:middle;fill:#000;fill-opacity:1;stroke:none;font-family:Sans" id="text6111-2-3" x="631.988" y="472.759" xml:space="preserve"><tspan id="tspan6113-1-7" x="631.988" y="472.759">Fragment</tspan><tspan id="tspan6115-6-6" x="631.988" y="487.759">shader</tspan></text><rect style="fill:#000;fill-opacity:1;stroke:none" id="rect5885-6-5-4" width="22.807" height="16.667" x="666.56" y="548.817"/><path style="fill:#000;fill-opacity:1;stroke:none" id="rect5887-2-4-2" d="m 680.59562,573.3786 0,-32.45614 18.42105,16.22807"/><rect style="fill:#000;fill-opacity:1;stroke:none" id="rect5885-3-5" width="22.807" height="16.667" x="566.274" y="549.047"/><path style="fill:#000;fill-opacity:1;stroke:none" id="rect5887-21-5" d="m 580.30892,573.60799 0,-32.45614 18.42105,16.22807"/><text style="font-size:12px;font-style:normal;font-weight:400;text-align:center;line-height:125%;letter-spacing:0;word-spacing:0;text-anchor:middle;fill:#000;fill-opacity:1;stroke:none;font-family:Sans" id="text6111-2-5" x="631.988" y="564.362" xml:space="preserve"><tspan id="tspan6113-1-1" x="631.988" y="564.362">Fragment</tspan><tspan id="tspan6115-6-63" x="631.988" y="579.362">shader</tspan></text><rect style="fill:#000;fill-opacity:1;stroke:none" id="rect5885-6-5-7" width="22.807" height="16.667" x="666.56" y="579.351"/><path style="fill:#000;fill-opacity:1;stroke:none" id="rect5887-2-4-51" d="m 680.59562,603.91295 0,-32.45614 18.42105,16.22807"/><rect style="fill:#000;fill-opacity:1;stroke:none" id="rect5885-3-1" width="22.807" height="16.667" x="566.274" y="579.581"/><path style="fill:#000;fill-opacity:1;stroke:none" id="rect5887-21-2" d="m 580.30892,604.14234 0,-32.45614 18.42105,16.22807"/><text style="font-size:12px;font-style:normal;font-weight:400;text-align:center;line-height:125%;letter-spacing:0;word-spacing:0;text-anchor:middle;fill:#000;fill-opacity:1;stroke:none;font-family:Sans" id="text6111-2-2" x="631.988" y="594.897" xml:space="preserve"><tspan id="tspan6115-6-95" x="631.988" y="594.897">...</tspan></text></g></svg>